<?xml version="1.0" standalone="no"?>
<!DOCTYPE svg PUBLIC "-//W3C//DTD SVG 20010904//EN"
 "http://www.w3.org/TR/2001/REC-SVG-20010904/DTD/svg10.dtd">
<svg version="1.0" xmlns="http://www.w3.org/2000/svg"
 width="700.000000pt" height="700.000000pt" viewBox="0 0 700.000000 700.000000"
 preserveAspectRatio="xMidYMid meet">
<metadata>
Created by potrace 1.11, written by Peter Selinger 2001-2013
</metadata>
<g transform="translate(0.000000,700.000000) scale(0.100000,-0.100000)"
fill="#000000" stroke="none">
<path d="M0 3500 l0 -3500 3500 0 3500 0 0 3500 0 3500 -3500 0 -3500 0 0
-3500z m1911 1870 l1589 -891 1589 891 c874 489 1592 890 1595 890 4 0 5 -160
4 -356 l-3 -357 -1268 -706 c-697 -388 -1268 -710 -1267 -716 0 -5 257 -154
570 -329 l570 -320 0 -115 0 -116 -533 -267 c-293 -147 -540 -273 -550 -280
-15 -12 138 -90 1233 -628 l1250 -614 0 -359 c0 -338 -1 -359 -17 -352 -10 3
-726 364 -1592 801 -866 437 -1577 794 -1581 794 -4 0 -715 -357 -1581 -794
-866 -437 -1582 -798 -1591 -801 -17 -7 -18 14 -18 352 l0 359 1248 609 c686
335 1251 612 1255 615 5 4 -242 133 -547 286 l-556 279 0 116 0 115 579 325
c318 178 577 326 574 329 -2 2 -577 323 -1276 711 l-1272 707 -3 356 c-1 196
0 356 4 356 3 0 721 -401 1595 -890z"/>
<path d="M3150 3580 c-184 -104 -336 -195 -338 -202 -2 -10 109 -69 348 -186
l350 -172 345 167 c287 140 345 171 343 187 -2 14 -97 71 -342 208 -186 103
-346 188 -355 187 -9 -1 -167 -86 -351 -189z"/>
</g>
</svg>
